<svg width="200" height="200" viewBox="0 0 200 200" xmlns="http://www.w3.org/2000/svg">
  <g>
    <circle cx="100" cy="100" r="90" fill="#2c3e50" opacity="0.1"/>
    <path d="M100 10 A90 90 0 0 1 190 100 L100 100 Z" fill="#6c5ce7" opacity="0.4"/>
    <path d="M190 100 A90 90 0 0 1 100 190 L100 100 Z" fill="#00cec9" opacity="0.4"/>
    <path d="M100 190 A90 90 0 0 1 10 100 L100 100 Z" fill="#6c5ce7" opacity="0.4"/>
    <path d="M10 A100 100 0 0 1 100 10 L100 100 Z" fill="#00cec9" opacity="0.4"/>
  </g>
  <path d="M100 65c-19.3 0-35 15.7-35 35 0 15.4 10 28.5 23.8 33.1 1.7.3 2.4-.7 2.4-1.7v-5.9c-9.7 2.1-11.8-4.7-11.8-4.7-1.6-4-3.9-5-3.9-5-3.2-2.2.2-2.1.2-2.1 3.5.2 5.4 3.6 5.4 3.6 3.1 5.4 8.2 3.8 10.2 2.9.3-2.3 1.2-3.8 2.2-4.7-7.8-.9-15.9-3.9-15.9-17.3 0-3.8 1.4-6.9 3.6-9.3-.3-.9-1.6-4.4.3-9.2 0 0 2.9-.9 9.6 3.6 2.8-.8 5.8-1.2 8.7-1.2s5.9.4 8.7 1.2c6.7-4.5 9.6-3.6 9.6-3.6 1.9 4.8.7 8.3.3 9.2 2.2 2.4 3.6 5.5 3.6 9.3 0 13.4-8.1 16.4-15.9 17.2 1.3 1.1 2.4 3.3 2.4 6.6v9.8c0 1 .7 2.1 2.4 1.7 13.8-4.6 23.8-17.7 23.8-33.1 0-19.3-15.7-35-35-35z" fill="white"/>
</svg>

