<svg width="200" height="200" viewBox="0 0 200 200" xmlns="http://www.w3.org/2000/svg">
  <defs>
    <radialGradient id="grad1" cx="50%" cy="50%" r="50%">
      <stop offset="0%" style="stop-color:#4facfe;stop-opacity:0.6" />
      <stop offset="100%" style="stop-color:#00f2fe;stop-opacity:0.2" />
    </radialGradient>
  </defs>
  <g opacity="0.8">
    <circle cx="100" cy="100" r="80" fill="url(#grad1)" stroke="#00f2fe" stroke-width="1"/>
    <path d="M100 20 Q120 60 100 100 Q80 60 100 20" fill="#a29bfe" opacity="0.5" transform="rotate(0 100 100)"/>
    <path d="M100 20 Q120 60 100 100 Q80 60 100 20" fill="#74b9ff" opacity="0.5" transform="rotate(45 100 100)"/>
    <path d="M100 20 Q120 60 100 100 Q80 60 100 20" fill="#a29bfe" opacity="0.5" transform="rotate(90 100 100)"/>
    <path d="M100 20 Q120 60 100 100 Q80 60 100 20" fill="#74b9ff" opacity="0.5" transform="rotate(135 100 100)"/>
    <path d="M100 20 Q120 60 100 100 Q80 60 100 20" fill="#a29bfe" opacity="0.5" transform="rotate(180 100 100)"/>
    <path d="M100 20 Q120 60 100 100 Q80 60 100 20" fill="#74b9ff" opacity="0.5" transform="rotate(225 100 100)"/>
    <path d="M100 20 Q120 60 100 100 Q80 60 100 20" fill="#a29bfe" opacity="0.5" transform="rotate(270 100 100)"/>
    <path d="M100 20 Q120 60 100 100 Q80 60 100 20" fill="#74b9ff" opacity="0.5" transform="rotate(315 100 100)"/>
  </g>
  <rect x="70" y="70" width="60" height="60" rx="15" fill="none" stroke="white" stroke-width="5"/>
  <circle cx="100" cy="100" r="15" fill="none" stroke="white" stroke-width="5"/>
  <circle cx="120" cy="80" r="3" fill="white"/>
</svg>

